<?xml version="1.0" encoding="utf-8"?>
<!-- Generator: Adobe Illustrator 24.1.0, SVG Export Plug-In . SVG Version: 6.00 Build 0)  -->
<svg version="1.1" id="Capa_1" xmlns="http://www.w3.org/2000/svg" xmlns:xlink="http://www.w3.org/1999/xlink" x="0px" y="0px"
	 viewBox="0 0 296 296" style="enable-background:new 0 0 296 296;" xml:space="preserve">
<style type="text/css">
	<!-- .st0{fill:#FFFFFF;} -->
</style>
<g>
	<path class="st0" d="M148,0C66.4,0,0,66.4,0,148s66.4,148,148,148s148-66.4,148-148S229.6,0,148,0z M148,280
		c-36.3,0-69.1-14.7-93-38.4c-9.5-9.5-17.6-20.4-23.9-32.4C21.4,190.8,16,170,16,148C16,75.2,75.2,16,148,16
		c34.5,0,66,13.3,89.5,35.1c12.2,11.3,22.3,24.8,29.6,40c8.3,17.2,12.9,36.5,12.9,56.9C280,220.8,220.8,280,148,280z"/>
	<path class="st0" d="M240,148h-16c0,42-34.1,76-76,76s-76-34-76-76H56c0,51,41.3,92,92,92C198.7,240,240,199,240,148z"/>
	<circle class="st0" cx="98.7" cy="115" r="16"/>
	<circle class="st0" cx="197.7" cy="115" r="16"/>
</g>
</svg>
